PathFileType	4	(X/Y/Z)	C:/Users/opensim2020/Desktop/walking_exp_matlab/subject01_walking14_straight_03.trc																																																																																																																												
DataRate	CameraRate	NumFrames	NumMarkers	Units	OrigDataRate	OrigDataStartFrame	OrigNumFrames																																																																																																																								
100	100	8	42	mm	100	1598	121																																																																																																																								
Frame#	Time	LFHD			RFHD			LBHD			RBHD			C7			T10			CLAV			STRN			RBAK			LSHO			LUPA			LELB			LFRM			LWRA			LWRB			LFIN			RSHO			RUPA			RELB			RFRM			RWRA			RWRB			RFIN			LASI			RASI			LPSI			RPSI			LTHI			LKNE			LTIB			LANK			LHEE			LTOE			RTHI			RKNE			RTIB			RANK			RHEE			RTOE			*39			*40			*41		
		X1	Y1	Z1	X2	Y2	Z2	X3	Y3	Z3	X4	Y4	Z4	X5	Y5	Z5	X6	Y6	Z6	X7	Y7	Z7	X8	Y8	Z8	X9	Y9	Z9	X10	Y10	Z10	X11	Y11	Z11	X12	Y12	Z12	X13	Y13	Z13	X14	Y14	Z14	X15	Y15	Z15	X16	Y16	Z16	X17	Y17	Z17	X18	Y18	Z18	X19	Y19	Z19	X20	Y20	Z20	X21	Y21	Z21	X22	Y22	Z22	X23	Y23	Z23	X24	Y24	Z24	X25	Y25	Z25	X26	Y26	Z26	X27	Y27	Z27	X28	Y28	Z28	X29	Y29	Z29	X30	Y30	Z30	X31	Y31	Z31	X32	Y32	Z32	X33	Y33	Z33	X34	Y34	Z34	X35	Y35	Z35	X36	Y36	Z36	X37	Y37	Z37	X38	Y38	Z38	X39	Y39	Z39	X40	Y40	Z40	X41	Y41	Z41	X42	Y42	Z42
																																																																																																																															
1	0	-684.10223	1645.73645	1417.44299	-650.28375	1656.28784	1525.17188	-791.28595	1591.04688	1448.38257	-757.76093	1600.23267	1563.3042	-809.93158	1407.06567	1471.19788	-851.00659	1113.97058	1465.40454	-663.01849	1340.29309	1480.31714	-623.10925	1185.29822	1475.14758	-873.45795	1215.52344	1530.90845	-712.03314	1377.03699	1318.24146	-727.93115	1204.13513	1214.72974	-727.25781	1051.93579	1190.74377	-621.32935	994.66644	1196.1991	-494.3259	977.86914	1243.57556	-521.25616	929.33752	1222.26929	-438.00482	920.13312	1225.33875	-744.70966	1375.70825	1623.76648	-859.45178	1193.28308	1699.04089	-877.63477	1071.17505	1707.41467	-887.74194	953.6012	1743.58337	-839.32086	817.87671	1743.20532	-888.44141	833.13605	1770.71875	-875.0719	748.61768	1782.30591	-681.461	909.01465	1355.55066	-670.2937	916.70892	1572.16211	-864.77832	920.38391	1421.74304	-856.46204	919.2901	1564.6178	-783.81122	576.20935	1317.92004	-831.2619	446.73984	1337.32825	-952.88397	298.79971	1335.33411	-1076.94495	116.70379	1386.93542	-1133.88196	113.35011	1435.4646	-961.34637	28.84067	1400.9126	-636.62982	602.83209	1663.91003	-572.17712	459.47647	1654.43628	-576.66132	284.0202	1678.40601	-528.60162	76.25975	1656.83337	-560.46918	25.34596	1609.11584	-384.97083	75.82593	1669.32935	-669.1004	1687.828	1505.1272	1973.08447	1023.55261	-3102.0249	2012.48499	1021.93292	-3140.823
2	0.01	-672.1723	1645.24438	1421.13696	-637.74817	1655.67151	1528.73474	-779.37268	1590.83093	1452.70044	-745.22906	1599.96533	1567.42371	-798.68988	1406.31677	1475.94482	-837.875	1112.71765	1469.77222	-651.22021	1340.24915	1484.05554	-610.25104	1185.73767	1478.51501	-860.60382	1214.05676	1535.67517	-701.63794	1376.8916	1322.32373	-717.76105	1204.35181	1218.42163	-717.24481	1052.27161	1194.03784	-611.26404	994.95416	1198.68542	-483.88849	978.10358	1245.70496	-510.80444	929.69891	1224.17114	-427.51477	920.57129	1226.93408	-732.19788	1375.16125	1628.13843	-845.99738	1192.17444	1703.60242	-863.49915	1069.8186	1711.7262	-873.27521	952.35229	1747.95508	-824.57886	816.93292	1747.58679	-873.75018	831.89874	1774.87036	-859.94012	747.45612	1786.68372	-667.42047	908.7807	1358.8678	-655.8111	916.48328	1575.37634	-850.91467	919.77319	1425.36255	-841.93427	918.42371	1568.50171	-770.06665	575.92517	1319.77112	-817.59009	446.37088	1338.29419	-942.86884	301.30417	1335.58618	-1072.06885	122.37263	1385.94714	-1128.14783	121.41821	1434.65442	-960.62982	28.7917	1400.7937	-621.69446	601.47034	1664.44934	-559.43262	457.72144	1656.37524	-567.4787	282.01639	1676.57312	-523.35889	75.81929	1656.79761	-559.54779	26.68724	1608.89417	-380.48587	66.44205	1668.34253	-656.55762	1687.26721	1508.76538	1973.06921	1024.04053	-3101.98901	2012.53027	1022.06866	-3140.65967
3	0.02	-660.31189	1645.34033	1424.77539	-625.25311	1655.74951	1532.27161	-767.18304	1590.87952	1457.08948	-732.53839	1600.15417	1571.62048	-787.4433	1406.01367	1480.96472	-824.6554	1111.78979	1474.02942	-639.40845	1340.42847	1487.71277	-597.48401	1186.43457	1481.77563	-847.55957	1212.76428	1540.59875	-691.24249	1377.04907	1326.37256	-707.64893	1204.62585	1222.2041	-707.28113	1052.48523	1197.46826	-601.22614	995.013	1201.29504	-473.80225	977.76959	1247.77966	-500.92636	929.61151	1225.89258	-417.41821	920.26587	1228.48157	-719.47046	1374.70178	1632.58728	-832.17987	1191.00671	1708.33569	-849.22314	1068.65796	1716.43591	-858.3316	950.98413	1752.45032	-809.07782	815.76392	1751.83679	-858.27625	830.43683	1779.03711	-844.28992	746.32013	1791.04993	-653.19128	908.63525	1362.21558	-641.63391	916.48615	1578.56946	-837.1958	919.31104	1428.66846	-827.35046	917.79291	1572.4281	-755.53119	575.53729	1321.90405	-802.80945	445.77393	1339.43896	-931.75549	303.86276	1336.03503	-1065.55383	128.3647	1385.04309	-1120.91736	129.94159	1433.63196	-959.54181	28.96786	1400.60925	-608.22302	600.99786	1666.58777	-544.02112	458.08237	1657.80566	-555.92249	283.63049	1676.30957	-519.56244	75.70554	1657.60974	-557.93817	28.07087	1609.89673	-377.25305	60.42724	1668.06836	-644.18408	1686.90259	1512.27539	1973.0813	1023.45184	-3102.03833	2012.58301	1022.13373	-3140.76172
4	0.03	-648.14972	1646.01819	1428.67273	-612.58783	1656.40454	1535.81165	-755.06866	1591.75476	1461.47217	-719.7171	1600.92468	1575.79968	-775.92511	1406.47693	1486.09485	-811.53149	1111.84204	1478.08484	-627.38477	1341.10901	1491.40283	-584.88159	1187.42566	1484.97363	-834.54578	1212.21594	1545.59705	-680.8349	1377.52332	1330.20654	-697.6712	1205.08789	1226.11035	-697.51672	1052.93005	1200.93799	-591.68298	994.92694	1203.80872	-464.06665	976.82001	1249.7605	-491.7402	929.00531	1227.16663	-408.2861	919.40656	1229.61279	-706.65137	1374.4021	1637.08801	-817.93158	1189.93665	1713.18066	-834.40088	1067.39111	1721.06104	-842.86719	949.55231	1756.93921	-792.92609	814.47406	1755.93787	-842.32178	829.01764	1783.12683	-827.76459	745.18506	1795.37427	-639.20624	908.61298	1365.74731	-627.34137	916.65552	1581.71155	-823.4762	919.00623	1431.58252	-812.9812	918.09546	1576.05652	-739.84851	575.17438	1324.17566	-786.60681	445.19629	1340.44751	-919.29089	306.83188	1336.4364	-1057.85425	135.1351	1384.52649	-1111.90442	139.66124	1433.17188	-958.30286	28.74073	1400.73071	-595.89276	601.77612	1669.86755	-527.4007	460.32462	1658.09338	-543.3175	286.34854	1679.24329	-515.77106	76.00249	1658.75623	-556.29767	29.32006	1611.15015	-373.47528	54.91325	1666.9928	-631.802	1687.42371	1516.02209	1973.18494	1023.39648	-3101.95166	2012.60327	1022.12683	-3140.63721
5	0.04	-635.93427	1646.86047	1432.49622	-599.66504	1657.15808	1539.36609	-742.76801	1593.04614	1465.96057	-706.72833	1602.12769	1580.0033	-763.45428	1406.92871	1490.68103	-798.38916	1112.30798	1481.68823	-615.21326	1342.13232	1495.15015	-572.04016	1188.69202	1488.19775	-821.63861	1212.44727	1550.65808	-670.14001	1378.2041	1333.98962	-687.84436	1205.84094	1230.19849	-688.05035	1053.68933	1204.63672	-582.71313	994.52783	1206.52649	-454.87686	975.36438	1251.63782	-483.04178	928.1228	1228.36157	-399.6142	917.78033	1230.72974	-693.58722	1374.25562	1641.52112	-803.36108	1188.91699	1718.13098	-818.94727	1066.0199	1725.65747	-826.77228	948.17828	1761.40979	-776.22333	813.39606	1760.05103	-825.74567	827.56799	1787.35608	-810.63348	744.20557	1799.66919	-625.72021	908.79645	1369.05835	-613.05743	917.22791	1584.62415	-809.7616	918.8291	1434.13477	-799.68011	919.41235	1579.30542	-722.96069	574.79681	1326.25745	-768.47913	444.42139	1341.22559	-905.09827	310.1474	1336.84924	-1048.07031	142.10518	1384.2533	-1100.73352	149.58424	1433.51038	-956.76007	28.84936	1400.80627	-583.80676	602.77222	1672.3396	-512.1145	461.71902	1658.25281	-531.04504	288.40649	1682.0741	-511.96121	76.39069	1660.32056	-554.85144	30.78118	1612.66931	-370.35321	48.11248	1666.15369	-619.15515	1688.37012	1519.64087	1973.03503	1023.99634	-3102.01074	2012.52661	1022.20349	-3140.67065
6	0.05	-623.49799	1647.49146	1436.21973	-586.56116	1657.7793	1542.8667	-730.46063	1594.37463	1470.37415	-693.66925	1603.33435	1584.20422	-750.9718	1407.80835	1495.01404	-785.52026	1112.96228	1485.34937	-602.828	1343.24756	1498.85608	-559.1991	1190.04028	1491.32544	-808.78381	1212.97559	1555.57373	-659.06873	1379.01501	1337.72668	-678.23364	1206.78369	1234.2804	-678.35754	1054.77722	1208.71704	-573.8136	994.47174	1209.05042	-446.09146	973.39496	1253.52563	-474.89127	926.72589	1229.8822	-391.45013	915.61938	1231.68384	-680.65082	1374.30615	1645.65149	-788.54907	1187.92554	1723.06604	-803.36401	1065.04492	1730.46802	-810.10693	947.0166	1765.87012	-759.04688	812.80121	1764.19189	-808.11267	826.57556	1791.73499	-792.7627	743.3291	1803.9552	-612.73871	909.17145	1372.65051	-598.82648	918.30005	1587.29431	-796.04926	918.78784	1436.45081	-785.34558	920.09235	1581.53552	-705.1571	574.44678	1327.95496	-748.85803	444.03668	1341.23254	-889.1814	313.74792	1337.35779	-1036.47229	149.67432	1384.33948	-1087.37073	160.02882	1434.57019	-955.68634	29.33145	1401.04846	-570.07031	604.29456	1673.84814	-498.71277	461.99734	1659.17834	-519.65887	288.66641	1684.48975	-508.69269	75.72887	1661.30505	-554.41046	32.45424	1614.25757	-367.92664	42.61087	1664.96899	-606.03534	1689.34814	1523.15796	1973.10535	1023.45172	-3102.00488	2012.50293	1022.07458	-3140.72583
7	0.06	-611.18213	1648.06262	1439.86194	-573.68298	1658.3363	1546.33704	-718.10382	1595.43335	1474.66968	-680.67834	1604.29419	1588.29663	-738.35626	1408.68665	1499.14258	-772.79456	1113.47217	1488.97314	-590.37836	1344.16321	1502.41479	-546.2558	1191.23669	1494.35071	-795.91492	1213.59436	1560.1897	-647.68262	1379.99292	1341.58484	-668.78766	1207.81067	1238.3313	-669.54321	1055.68823	1212.26965	-565.67963	994.16455	1211.79309	-437.88452	970.9187	1255.29395	-467.28912	924.96954	1231.40601	-384.19266	912.86627	1232.52393	-667.26758	1374.50977	1649.82825	-773.50348	1187.10388	1727.84387	-787.41333	1064.22876	1735.07593	-792.95044	946.14136	1770.22986	-741.02051	812.10626	1768.02881	-790.11444	825.71509	1795.97412	-774.1452	742.67157	1808.11462	-599.58551	909.85425	1375.95068	-585.04108	919.59894	1589.75269	-782.6488	919.17334	1438.78259	-772.70917	922.18835	1584.15417	-686.54333	573.90253	1329.26208	-727.56885	442.65921	1341.39233	-871.78064	317.15628	1337.86511	-1023.36615	157.06679	1384.39246	-1072.00745	170.70773	1435.8175	-954.72656	29.44136	1402.2312	-555.01282	605.57361	1675.8407	-487.57254	461.30545	1661.1438	-509.61472	287.28842	1686.94385	-506.0097	74.90781	1661.49158	-553.33313	33.1666	1614.55115	-365.91397	39.96221	1664.89917	-592.68774	1690.13599	1526.59912	1973.11938	1023.58478	-3101.98511	2012.573	1022.09399	-3140.59277
8	0.07	-598.93713	1648.67761	1443.4696	-560.92029	1658.84985	1549.72522	-705.63562	1596.04834	1478.85913	-667.76648	1604.93591	1592.26013	-725.84637	1409.32751	1503.14966	-760.34357	1114.07849	1492.43091	-578.04926	1344.92017	1505.65527	-533.56262	1192.31067	1497.08167	-782.92273	1214.08411	1564.43152	-636.14301	1380.94727	1345.34338	-659.23785	1208.93433	1242.23328	-660.6734	1057.07739	1216.047	-557.72437	993.9162	1214.37817	-430.14752	968.02081	1257.00208	-460.41769	922.85645	1232.62073	-377.61713	909.44598	1233.05396	-653.93085	1374.93359	1653.60754	-758.04181	1186.60022	1732.5415	-771.25275	1063.58459	1739.52917	-775.51697	945.51782	1774.50269	-722.55872	811.89703	1771.74976	-771.55048	825.03925	1800.12231	-754.89783	742.21301	1812.22131	-586.66083	910.61774	1378.96326	-571.77344	920.96088	1592.20093	-769.52246	919.60797	1441.18347	-758.8056	923.43835	1586.4978	-667.37848	573.2193	1330.34729	-706.24054	442.07947	1341.1499	-853.3653	320.63583	1338.39014	-1009.13086	164.43564	1384.36353	-1055.33362	181.8177	1436.75659	-953.4873	30.43075	1403.64148	-540.45764	606.18256	1678.21619	-477.7637	459.93301	1663.41089	-501.75552	285.05652	1689.02344	-504.76657	74.48254	1661.4447	-552.1275	32.95682	1614.57458	-364.8764	38.19777	1665.57922	-579.49677	1690.75342	1530.12866	1973.23975	1023.59149	-3101.84497	2012.46045	1022.185	-3140.72217
